<?xml version="1.0" standalone="no"?>
<!DOCTYPE svg PUBLIC "-//W3C//DTD SVG 20010904//EN"
 "http://www.w3.org/TR/2001/REC-SVG-20010904/DTD/svg10.dtd">
<svg version="1.0" xmlns="http://www.w3.org/2000/svg"
 width="700.000000pt" height="700.000000pt" viewBox="0 0 700.000000 700.000000"
 preserveAspectRatio="xMidYMid meet">
<metadata>
Created by potrace 1.11, written by Peter Selinger 2001-2013
</metadata>
<g transform="translate(0.000000,700.000000) scale(0.100000,-0.100000)"
fill="#000000" stroke="none">
<path d="M3325 6690 c-551 -31 -1081 -201 -1539 -492 -501 -318 -898 -760
-1161 -1293 -224 -455 -327 -898 -329 -1410 -1 -316 27 -534 104 -830 293
-1123 1189 -2008 2320 -2290 290 -72 447 -90 780 -90 333 0 490 18 780 90
1131 282 2027 1167 2320 2290 77 296 105 514 104 830 -1 311 -27 510 -105 814
-197 766 -703 1456 -1385 1889 -557 354 -1229 529 -1889 492z m388 -1691 c362
-54 693 -234 928 -502 371 -426 476 -1003 279 -1536 -183 -497 -637 -871
-1167 -961 -727 -125 -1450 305 -1686 1000 -306 899 253 1834 1193 1995 94 16
358 19 453 4z"/>
<path d="M3361 4209 c-272 -53 -491 -259 -563 -528 -36 -137 -25 -331 26 -453
15 -35 17 -36 45 -25 61 23 115 -34 90 -95 -6 -16 -19 -32 -27 -37 -37 -21
117 -162 245 -225 120 -59 173 -70 323 -70 150 0 203 11 322 69 189 94 335
276 384 480 20 85 22 238 5 320 -17 79 -50 167 -61 160 -4 -2 -12 -24 -18 -48
-14 -55 -79 -145 -130 -181 -128 -88 -303 -88 -419 1 -64 49 -79 67 -116 143
-28 58 -32 75 -32 150 0 71 4 94 26 141 34 71 89 133 151 169 l49 27 -47 7
c-63 8 -199 6 -253 -5z"/>
<path d="M222 4538 c-130 -412 -178 -777 -161 -1213 29 -720 289 -1415 745
-1990 109 -137 396 -425 530 -533 520 -416 1099 -657 1784 -744 138 -17 619
-17 760 0 970 119 1798 593 2377 1360 413 548 655 1223 682 1907 17 435 -32
805 -161 1213 l-41 132 -100 0 c-75 0 -97 -3 -94 -12 55 -133 135 -430 166
-613 60 -356 62 -735 5 -1085 -110 -677 -442 -1314 -935 -1796 -523 -510
-1154 -813 -1894 -911 -180 -23 -590 -23 -770 0 -740 98 -1371 401 -1894 911
-493 482 -825 1119 -935 1796 -30 186 -39 308 -39 530 0 297 26 525 93 792 24
95 93 319 117 376 3 9 -19 12 -94 12 l-100 0 -41 -132z"/>
</g>
</svg>
