<?xml version="1.0" encoding="utf-8"?>
<!-- Generator: Adobe Illustrator 19.2.0, SVG Export Plug-In . SVG Version: 6.00 Build 0)  -->
<!DOCTYPE svg PUBLIC "-//W3C//DTD SVG 1.1//EN" "http://www.w3.org/Graphics/SVG/1.1/DTD/svg11.dtd">
<svg version="1.1" id="Layer_1" xmlns="http://www.w3.org/2000/svg" xmlns:xlink="http://www.w3.org/1999/xlink" x="0px" y="0px"
	 viewBox="0 0 150 150" height="60" width="60" style="enable-background:new 0 0 150 150;" xml:space="preserve">
<style type="text/css">
	.st0{fill:#E6E7E8;}
	.st1{fill:#FFFFFF;}
</style>
<circle class="st0" cx="75" cy="75" r="74.4"/>
<path class="st1" d="M116.9,67.1c-0.7-2.3-8.1-13.3-7.7-16.3c0.3-2.1,2-6,1.7-9.3c-0.3-3-2.2-7.8-3.8-11.9c0,0,0,0,0,0
	c1-3.5,0-7.5-2.7-10.1c-1.6-1.6-3.3-2.8-5.2-3.7c-2-1.5-5-3-9.4-4.2C84.8,10,57,7,44.4,18c-11,9.5-12.1,23.3-11.2,31.9
	c0.8,7.6,6.7,20.6,6.7,20.6s2.9,1.2,3.5,3c0.6,1.8,3.1,6.1,0.8,12.8c-2.4,7.3-6.9,12.6-6.9,12.6s-2.6,2.2,8.5,8.2
	c11.2,6,35,32.9,35,32.9s-2.6-10-4.1-13.7c-1.4-3.7,0.4-7.2,1-9.2c0.6-2-1.1-4.7,1.6-13c1.3-4.1,4.6-4.3,8.6-4c4,0.2,12,0.8,15.5,0
	s4.4-1.9,4.2-6.3c-0.1-3.3-1.9-5.2-1.9-5.2s0.9-2.9,2.2-2.8c1.3,0.1,1.2-2.4,0.8-3.9c-0.4-1.4-3.8-1.4-3.8-1.4c3-0.3,2.2,0,3.8-1.1
	c1.4-0.9,1.6-3.2,1.6-3.2s-1.9-2.3-0.6-3.5s2.1-0.9,4.4-1.1C116.6,71.5,117.6,69.3,116.9,67.1z"/>
</svg>
