<?xml version="1.0" encoding="utf-8"?>
<!-- Generator: Adobe Illustrator 19.2.0, SVG Export Plug-In . SVG Version: 6.00 Build 0)  -->
<!DOCTYPE svg PUBLIC "-//W3C//DTD SVG 1.1//EN" "http://www.w3.org/Graphics/SVG/1.1/DTD/svg11.dtd">
<svg version="1.1" id="Layer_1" xmlns="http://www.w3.org/2000/svg" xmlns:xlink="http://www.w3.org/1999/xlink" x="0px" y="0px"
	 viewBox="0 0 150 150" height="60" width="60" style="enable-background:new 0 0 150 150;" xml:space="preserve">
<style type="text/css">
	.st0{fill:#E6E7E8;}
	.st1{fill:#FFFFFF;}
</style>
<circle class="st0" cx="75" cy="75" r="74.4"/>
<path class="st1" d="M36.1,33.3c2.4-4.6,5.6-8.9,9.3-12.5c4-4.1,8.6-7,13.9-9.2c4.3-1.8,10.2-2.1,14.6-0.4c0.8,0.3,1.5,0.6,2.2,1
	c1-0.5,2-0.9,3.1-1.3c4.1-1.4,8.3-1.2,12.5-0.5c7.2,1.1,14.3,5.5,18.2,11.7c2.6,4.2,1.5,10.1-2,13.5c0.5,1.1,0.9,2.2,1.1,3
	c0.9,2.9,1.4,8.6,1,13.5c0.2,0,1.8,0.2,2,0.2c1.8,0,2.2-1,2.8-1.3c-1.3,2.5-2.6,3-4.7,2.8c2.8,4.8,7.9,8.7,9.3,10.7
	c1.4,2-0.1,3.1-0.9,3.7c-1.6,1-2,0.4-2.6,2.2c-0.2,1.6-0.3,2.2,0.4,2.5c0.1,0,0.4,0.2,0.5,0.2c0,0,0.5,0.3,0.5,0.8
	c0,1.9-0.5,2.9-2.8,3.5c1.7-0.5,3.1,0.5,2.3,2.6c-0.3,1.1-1.1,1.4-2,1.8c-0.9,0.3-0.7,1.2-0.8,1.7c-0.2,1.9,1.1,2.8,0.7,5.4
	c-0.2,1.1-0.8,2.1-2.1,3.1c-4.6,3.3-15.6,1.3-21.1,2c-9.6,1-17.5,26.8-8,46.5c-13.4-1.6-16.1-5.9-21.2-14.6
	c-2.9-5-10.5-12.2-14.5-12.7c3.7-4,4.2-2.7,8.5-12.1c2.5-5.4,3.3-11.1,3.4-14.9c-0.8,0.1-1.5,0.2-2.3,0.2
	c-9.6,0.7-18.9-6.3-23.4-14.3C27.3,59.7,29.9,45.1,36.1,33.3z"/>
</svg>
